<svg xmlns="http://www.w3.org/2000/svg" viewBox="0 0 128 128" width="128" height="128">
  <defs>
    <linearGradient id="docGradient" x1="0%" y1="0%" x2="0%" y2="100%">
      <stop offset="0%" style="stop-color:#e6f0fa;stop-opacity:1" />
      <stop offset="100%" style="stop-color:#c8d9ec;stop-opacity:1" />
    </linearGradient>
    <linearGradient id="cloudGradient" x1="0%" y1="0%" x2="0%" y2="100%">
      <stop offset="0%" style="stop-color:#f5f8ff;stop-opacity:1" />
      <stop offset="100%" style="stop-color:#d2e3f7;stop-opacity:1" />
    </linearGradient>
    <linearGradient id="gearGradient" x1="0%" y1="0%" x2="100%" y2="100%">
      <stop offset="0%" style="stop-color:#5a87ba;stop-opacity:1" />
      <stop offset="100%" style="stop-color:#3f5a80;stop-opacity:1" />
    </linearGradient>
    <linearGradient id="arrowGradient" x1="0%" y1="0%" x2="100%" y2="0%">
      <stop offset="0%" style="stop-color:#50c878;stop-opacity:1" />
      <stop offset="100%" style="stop-color:#4facfe;stop-opacity:1" />
    </linearGradient>
    <linearGradient id="networkGradient" x1="0%" y1="0%" x2="100%" y2="100%">
      <stop offset="0%" style="stop-color:#4facfe;stop-opacity:1" />
      <stop offset="100%" style="stop-color:#50c878;stop-opacity:1" />
    </linearGradient>
  </defs>

  <path d="M24 8 H77 L93 32 V104 A8 8 0 0 1 85 112 H24 A8 8 0 0 1 16 104 V16 A8 8 0 0 1 24 8 Z" fill="url(#docGradient)" stroke="#2c3e50" stroke-width="3" stroke-linecap="round" stroke-linejoin="round"/>
  <path d="M77 8 V32 H93" fill="none" stroke="#2c3e50" stroke-width="3" stroke-linecap="round" stroke-linejoin="round"/>

  <g transform="translate(56, 44)">
    <path d="M0 -18 L3 -13 L7 -13 L9 -9 L13 -8 L16 -11 L18 -9 L17 -5 L20 -3 L24 -4 L25 0 L21 3 L21 7 L25 10 L24 14 L20 13 L17 15 L18 19 L15 21 L12 18 L8 19 L6 23 L2 23 L0 19 L-4 18 L-7 21 L-10 19 L-9 15 L-12 13 L-16 14 L-17 10 L-13 7 L-13 3 L-17 0 L-16 -4 L-12 -3 L-9 -5 L-10 -9 L-7 -11 L-4 -9 Z M0 0 A6 6 0 1 1 0 0 Z" fill="url(#gearGradient)" stroke="#2c3e50" stroke-width="2" stroke-linecap="round" stroke-linejoin="round"/>
  </g>

  <path d="M78 40 L106 40 L106 32 L118 44 L106 56 L106 48 L78 48 Z" fill="url(#arrowGradient)" stroke="#2c3e50" stroke-width="2" stroke-linecap="round" stroke-linejoin="round"/>

  <path d="M60 112 A 16 16 0 0 1 60 80 A 24 24 0 0 1 100 80 A 16 16 0 0 1 112 112 H 60 Z" fill="url(#cloudGradient)" stroke="#2c3e50" stroke-width="3" stroke-linecap="round" stroke-linejoin="round"/>

  <g transform="translate(60, 68)">
    <line x1="10" y1="20" x2="26" y2="10" stroke="url(#networkGradient)" stroke-width="2.5" stroke-linecap="round"/>
    <line x1="26" y1="10" x2="42" y2="20" stroke="url(#networkGradient)" stroke-width="2.5" stroke-linecap="round"/>
    <line x1="10" y1="20" x2="18" y2="36" stroke="url(#networkGradient)" stroke-width="2.5" stroke-linecap="round"/>
    <line x1="42" y1="20" x2="34" y2="36" stroke="url(#networkGradient)" stroke-width="2.5" stroke-linecap="round"/>
    <line x1="26" y1="10" x2="26" y2="28" stroke="url(#networkGradient)" stroke-width="2.5" stroke-linecap="round"/>

    <circle cx="10" cy="20" r="4" fill="#4facfe" stroke="#2c3e50" stroke-width="1.5"/>
    <circle cx="26" cy="10" r="4" fill="#50c878" stroke="#2c3e50" stroke-width="1.5"/>
    <circle cx="42" cy="20" r="4" fill="#4facfe" stroke="#2c3e50" stroke-width="1.5"/>
    <circle cx="18" cy="36" r="4" fill="#50c878" stroke="#2c3e50" stroke-width="1.5"/>
    <circle cx="34" cy="36" r="4" fill="#4facfe" stroke="#2c3e50" stroke-width="1.5"/>
    <circle cx="26" cy="28" r="4" fill="#50c878" stroke="#2c3e50" stroke-width="1.5"/>
  </g>
</svg>
